<svg xmlns="http://www.w3.org/2000/svg" viewBox="0 0 251.57 60.44"><defs><style>.cls-1{fill:#fff;}</style></defs><title>Asset 2</title><g id="Layer_2" data-name="Layer 2"><g id="Layer_2-2" data-name="Layer 2"><path class="cls-1" d="M145.71,55.51H246.64V4.92H145.71Zm105.86,4.92H140.78V0H251.57Z"/><path class="cls-1" d="M160.06,38.94a3.23,3.23,0,1,1,3.21,3.17,3.15,3.15,0,0,1-3.21-3.17"/><path class="cls-1" d="M169.65,31.46v-.32c0-6.74,4.79-11,10.72-11,4.71,0,9.14,2.11,9.71,8h-4.75c-.41-2.84-2.27-4-4.87-4-3.37,0-5.77,2.6-5.77,7v.33c0,4.63,2.27,7.07,5.89,7.07a4.84,4.84,0,0,0,5.12-4.55h4.51c-.37,4.87-4.06,8.33-9.83,8.33-6.09,0-10.72-4-10.72-10.76"/><path class="cls-1" d="M206.4,34.39V32.28h-2.52c-3.74,0-6.13.85-6.13,3.45,0,1.79,1,3,3.41,3,3,0,5.24-1.58,5.24-4.3m-13.52,1.54c0-5,4.79-6.74,10.88-6.74h2.64v-1.1c0-2.84-1-4.26-3.86-4.26-2.56,0-3.82,1.22-4.06,3.33h-4.75c.41-5,4.35-7,9.1-7s8.49,1.95,8.49,7.76V41.82h-4.83v-2.6a7.39,7.39,0,0,1-6.5,3c-3.9,0-7.11-1.87-7.11-6.29"/><polygon class="cls-1" points="218.1 24.28 214.94 24.28 214.94 20.58 218.1 20.58 218.1 15.91 223.01 15.91 223.01 20.58 227.36 20.58 227.36 24.28 223.01 24.28 223.01 41.82 218.1 41.82 218.1 24.28"/><polygon class="cls-1" points="0 20.14 5.24 20.14 9.46 35.48 13.97 20.14 18.07 20.14 22.21 35.48 26.64 20.14 31.43 20.14 24.77 41.37 19.77 41.37 15.84 27.08 11.53 41.37 6.5 41.37 0 20.14"/><path class="cls-1" d="M107.84,35.2h4.63c.24,2.15,1.34,3.41,4.22,3.41,2.64,0,3.82-.93,3.82-2.72S119.09,33.5,116,33c-5.6-.89-7.67-2.48-7.67-6.46,0-4.26,4-6.38,8-6.38,4.35,0,7.8,1.62,8.33,6.42H120c-.41-1.95-1.5-2.84-3.78-2.84-2.11,0-3.37,1-3.37,2.52s1,2.15,4.39,2.72c5,.77,8,2,8,6.5,0,4.3-3,6.78-8.49,6.78s-8.69-2.52-8.89-7"/><path class="cls-1" d="M47.86,34.39V32.28H45.34c-3.74,0-6.13.85-6.13,3.45,0,1.79,1,3,3.41,3,3,0,5.24-1.58,5.24-4.3M34.34,35.93c0-5,4.79-6.74,10.88-6.74h2.64v-1.1c0-2.84-1-4.26-3.86-4.26-2.56,0-3.82,1.22-4.06,3.33H35.19c.41-5,4.34-7,9.1-7s8.49,1.95,8.49,7.76V41.82H47.94v-2.6a7.39,7.39,0,0,1-6.5,3c-3.9,0-7.11-1.87-7.11-6.29"/><path class="cls-1" d="M74.22,31.34V31c0-4.71-2.44-7-5.64-7-3.41,0-5.85,2.31-5.85,7v.33c0,4.75,2.31,7,5.89,7s5.6-2.44,5.6-7M58,20.58h4.91V24a8.21,8.21,0,0,1,6.94-3.86c5.32,0,9.42,3.94,9.42,10.8v.32c0,6.82-3.94,11-9.42,11a7.68,7.68,0,0,1-6.94-3.74v10.6H58Z"/><path class="cls-1" d="M99.59,31.34V31c0-4.71-2.44-7-5.64-7-3.41,0-5.85,2.31-5.85,7v.33c0,4.75,2.31,7,5.89,7s5.6-2.44,5.6-7M83.35,20.58h4.91V24a8.21,8.21,0,0,1,6.94-3.86c5.32,0,9.42,3.94,9.42,10.8v.32c0,6.82-3.94,11-9.42,11a7.68,7.68,0,0,1-6.94-3.74v10.6H83.35Z"/></g></g></svg>